<svg width="36" height="36" viewBox="0 0 36 36" fill="none" xmlns="http://www.w3.org/2000/svg">
<path d="M18.9374 10.3161L25.7175 17.2692C25.8202 17.3745 25.8931 17.4886 25.9363 17.6115C25.9794 17.7345 26.0007 17.8661 26 18.0066C26 18.1471 25.9784 18.2788 25.9353 18.4017C25.8921 18.5246 25.8195 18.6387 25.7175 18.7441L18.9374 25.6972C18.7491 25.8903 18.5135 25.9911 18.2306 25.9995C17.9478 26.0079 17.704 25.9072 17.4992 25.6972C17.2937 25.504 17.1866 25.2624 17.1777 24.9723C17.1687 24.6823 17.2674 24.4323 17.4735 24.2223L22.5072 19.0601L11.0273 19.0601C10.7362 19.0601 10.4921 18.959 10.2948 18.7567C10.0976 18.5544 9.99932 18.3044 10 18.0066C10 17.7081 10.0983 17.4577 10.2948 17.2555C10.4914 17.0532 10.7355 16.9524 11.0273 16.9531L22.5072 16.9531L17.4735 11.791C17.2852 11.5978 17.1866 11.352 17.1777 11.0535C17.1687 10.755 17.2674 10.5092 17.4735 10.3161C17.6618 10.1054 17.9015 10 18.1926 10C18.4837 10 18.7319 10.1054 18.9374 10.3161Z" fill="white"/>
</svg>
