<svg width="620" height="110" viewBox="0 0 620 110" fill="none" xmlns="http://www.w3.org/2000/svg">
<g clip-path="url(#clip0_485_194)">
<g filter="url(#filter0_d_485_194)">
<path d="M32.8606 23.3457C37.2841 23.3457 41.2162 24.3272 44.6567 26.2903C48.0972 28.1832 50.7654 31.0226 52.6612 34.8085C54.6272 38.5242 55.6102 43.0112 55.6102 48.2693V82.4473H40.8651V50.2674C40.8651 45.6403 39.7065 42.0998 37.3895 39.646C35.0724 37.122 31.9127 35.8601 27.9104 35.8601C23.838 35.8601 20.6081 37.122 18.2208 39.646C15.9037 42.0998 14.7451 45.6403 14.7451 50.2674V82.4473H0V4.62668H14.7451V31.4432C16.6409 28.9193 19.1687 26.9563 22.3284 25.5541C25.488 24.0818 28.9988 23.3457 32.8606 23.3457Z" fill="#1B4790"/>
<path d="M87.1156 83.3938C81.4984 83.3938 76.4429 82.1669 71.9492 79.7131C67.4554 77.1891 63.9096 73.6487 61.3116 69.0916C58.7839 64.5345 57.52 59.2764 57.52 53.3172C57.52 47.3579 58.819 42.0998 61.417 37.5427C64.0851 32.9856 67.7012 29.4802 72.2652 27.0264C76.8291 24.5025 81.9197 23.2405 87.5369 23.2405C93.1541 23.2405 98.2447 24.5025 102.809 27.0264C107.373 29.4802 110.954 32.9856 113.552 37.5427C116.22 42.0998 117.554 47.3579 117.554 53.3172C117.554 59.2764 116.185 64.5345 113.446 69.0916C110.778 73.6487 107.127 77.1891 102.493 79.7131C97.9287 82.1669 92.803 83.3938 87.1156 83.3938ZM87.1156 70.5639C89.7838 70.5639 92.2764 69.9329 94.5935 68.6709C96.9808 67.3389 98.8766 65.3758 100.281 62.7818C101.685 60.1878 102.387 57.0329 102.387 53.3172C102.387 47.7786 100.913 43.537 97.9638 40.5924C95.085 37.5778 91.5392 36.0704 87.3263 36.0704C83.1134 36.0704 79.5675 37.5778 76.6887 40.5924C73.8801 43.537 72.4758 47.7786 72.4758 53.3172C72.4758 58.8557 73.845 63.1324 76.5834 66.147C79.392 69.0916 82.9027 70.5639 87.1156 70.5639Z" fill="#1B4790"/>
<path d="M134.689 4.62668V82.4473H119.944V4.62668H134.689Z" fill="#1B4790"/>
<path d="M155.577 24.187V82.4473H140.832V24.187H155.577Z" fill="#1B4790"/>
<path d="M157.928 53.1068C157.928 47.2177 159.086 41.9946 161.403 37.4375C163.791 32.8805 167.02 29.375 171.093 26.9212C175.165 24.4674 179.694 23.2405 184.68 23.2405C188.471 23.2405 192.087 24.0818 195.528 25.7644C198.968 27.3769 201.707 29.5503 203.743 32.2845V4.62668H218.699V82.4473H203.743V73.8239C201.917 76.6984 199.354 79.012 196.054 80.7647C192.754 82.5174 188.928 83.3938 184.574 83.3938C179.659 83.3938 175.165 82.1318 171.093 79.6079C167.02 77.084 163.791 73.5435 161.403 68.9864C159.086 64.3593 157.928 59.0661 157.928 53.1068ZM203.848 53.3172C203.848 49.7416 203.146 46.6919 201.742 44.168C200.337 41.5739 198.442 39.6109 196.054 38.2788C193.667 36.8767 191.104 36.1756 188.366 36.1756C185.627 36.1756 183.1 36.8416 180.783 38.1737C178.466 39.5057 176.57 41.4688 175.095 44.0628C173.691 46.5867 172.989 49.6014 172.989 53.1068C172.989 56.6123 173.691 59.697 175.095 62.3612C176.57 64.9552 178.466 66.9533 180.783 68.3555C183.17 69.7576 185.698 70.4587 188.366 70.4587C191.104 70.4587 193.667 69.7927 196.054 68.4606C198.442 67.0585 200.337 65.0954 201.742 62.5715C203.146 59.9775 203.848 56.8927 203.848 53.3172Z" fill="#1B4790"/>
<path d="M220.882 53.1068C220.882 47.2177 222.041 41.9946 224.358 37.4375C226.745 32.8805 229.94 29.375 233.942 26.9212C238.015 24.4674 242.544 23.2405 247.529 23.2405C251.882 23.2405 255.674 24.1169 258.904 25.8696C262.204 27.6223 264.837 29.8307 266.803 32.4949V24.187H281.654V82.4473H266.803V73.9291C264.907 76.6633 262.274 78.9419 258.904 80.7647C255.604 82.5174 251.777 83.3938 247.424 83.3938C242.509 83.3938 238.015 82.1318 233.942 79.6079C229.94 77.084 226.745 73.5435 224.358 68.9864C222.041 64.3593 220.882 59.0661 220.882 53.1068ZM266.803 53.3172C266.803 49.7416 266.101 46.6919 264.697 44.168C263.292 41.5739 261.396 39.6109 259.009 38.2788C256.622 36.8767 254.059 36.1756 251.321 36.1756C248.582 36.1756 246.055 36.8416 243.737 38.1737C241.42 39.5057 239.525 41.4688 238.05 44.0628C236.646 46.5867 235.944 49.6014 235.944 53.1068C235.944 56.6123 236.646 59.697 238.05 62.3612C239.525 64.9552 241.42 66.9533 243.737 68.3555C246.125 69.7576 248.652 70.4587 251.321 70.4587C254.059 70.4587 256.622 69.7927 259.009 68.4606C261.396 67.0585 263.292 65.0954 264.697 62.5715C266.101 59.9775 266.803 56.8927 266.803 53.3172Z" fill="#1B4790"/>
<path d="M343.45 24.187L307.324 110H291.631L304.27 80.975L280.888 24.187H297.424L312.485 64.8851L327.757 24.187H343.45Z" fill="#1B4790"/>
<path d="M141.781 14.828C143.537 16.4405 145.714 17.2467 148.311 17.2467C150.909 17.2467 153.051 16.4405 154.736 14.828C156.492 13.1454 157.369 11.0772 157.369 8.62337C157.369 6.16956 156.492 4.13641 154.736 2.52391C153.051 0.841303 150.909 0 148.311 0C145.714 0 143.537 0.841303 141.781 2.52391C140.096 4.13641 139.254 6.16956 139.254 8.62337C139.254 11.0772 140.096 13.1454 141.781 14.828Z" fill="#F7941E"/>
</g>
<g filter="url(#filter1_d_485_194)">
<path d="M398.424 65.0859H390.199C384.617 73.0356 379.427 76.1736 371.887 76.1736C359.843 76.1736 350.344 66.0273 350.344 53.3706C350.344 40.5046 359.647 30.4629 371.593 30.4629C379.525 30.4629 386.086 34.5424 390.199 42.0736H398.326C394.018 30.5675 383.736 23.3501 371.691 23.3501C355.632 23.3501 343 36.5298 343 53.1614C343 70.2113 355.73 83.2865 372.181 83.2865C383.246 83.2865 391.961 78.161 398.424 65.0859Z" fill="#F7941E"/>
<path d="M450.955 81.9267V51.1739C450.955 32.0319 441.751 23.3501 427.846 23.3501C420.502 23.3501 414.43 26.4881 410.807 32.1365V4.62646H403.561V81.9267H410.807V50.5463C410.807 36.5298 417.858 30.4629 427.16 30.4629C436.953 30.4629 443.709 36.9482 443.709 51.1739V81.9267H450.955Z" fill="#F7941E"/>
<path d="M512.975 81.9267V24.7099H505.728V34.8562C500.441 26.9065 493.88 23.3501 484.577 23.3501C468.518 23.3501 456.376 36.3206 456.376 53.4752C456.376 70.5251 468.616 83.2865 485.067 83.2865C494.174 83.2865 500.049 80.0438 505.728 71.8849V81.9267H512.975ZM505.728 53.0568C505.728 66.0273 496.72 76.1736 485.165 76.1736C473.022 76.1736 463.72 66.0273 463.72 52.9522C463.72 40.5046 473.12 30.4629 484.773 30.4629C496.524 30.4629 505.728 40.2954 505.728 53.0568Z" fill="#F7941E"/>
<path d="M527.626 81.9267V4.62646H520.379V81.9267H527.626Z" fill="#F7941E"/>
<path d="M588.944 53.4752C588.944 36.0068 577.193 23.3501 561.134 23.3501C545.271 23.3501 533.03 36.216 533.03 52.9522C533.03 70.5251 545.075 83.2865 561.722 83.2865C577.389 83.2865 588.944 70.6297 588.944 53.4752ZM581.6 53.5798C581.6 66.6549 573.179 76.1736 561.526 76.1736C549.188 76.1736 540.375 66.5503 540.375 53.1614C540.375 40.1908 549.286 30.4629 561.134 30.4629C572.885 30.4629 581.6 40.2954 581.6 53.5798Z" fill="#F7941E"/>
</g>
</g>
<defs>
<filter id="filter0_d_485_194" x="-4" y="-4" width="351.45" height="118" filterUnits="userSpaceOnUse" color-interpolation-filters="sRGB">
<feFlood flood-opacity="0" result="BackgroundImageFix"/>
<feColorMatrix in="SourceAlpha" type="matrix" values="0 0 0 0 0 0 0 0 0 0 0 0 0 0 0 0 0 0 127 0" result="hardAlpha"/>
<feOffset/>
<feGaussianBlur stdDeviation="2"/>
<feComposite in2="hardAlpha" operator="out"/>
<feColorMatrix type="matrix" values="0 0 0 0 1 0 0 0 0 1 0 0 0 0 1 0 0 0 0.25 0"/>
<feBlend mode="normal" in2="BackgroundImageFix" result="effect1_dropShadow_485_194"/>
<feBlend mode="normal" in="SourceGraphic" in2="effect1_dropShadow_485_194" result="shape"/>
</filter>
<filter id="filter1_d_485_194" x="339" y="0.626465" width="253.944" height="86.66" filterUnits="userSpaceOnUse" color-interpolation-filters="sRGB">
<feFlood flood-opacity="0" result="BackgroundImageFix"/>
<feColorMatrix in="SourceAlpha" type="matrix" values="0 0 0 0 0 0 0 0 0 0 0 0 0 0 0 0 0 0 127 0" result="hardAlpha"/>
<feOffset/>
<feGaussianBlur stdDeviation="2"/>
<feComposite in2="hardAlpha" operator="out"/>
<feColorMatrix type="matrix" values="0 0 0 0 1 0 0 0 0 1 0 0 0 0 1 0 0 0 0.25 0"/>
<feBlend mode="normal" in2="BackgroundImageFix" result="effect1_dropShadow_485_194"/>
<feBlend mode="normal" in="SourceGraphic" in2="effect1_dropShadow_485_194" result="shape"/>
</filter>
<clipPath id="clip0_485_194">
<rect width="620" height="110" fill="white"/>
</clipPath>
</defs>
</svg>
